<?xml version="1.0" encoding="UTF-8" standalone="no"?>
<!-- Generator: Adobe Illustrator 12.0.0, SVG Export Plug-In . SVG Version: 6.00 Build 51448)  -->
<svg
   xmlns:dc="http://purl.org/dc/elements/1.1/"
   xmlns:cc="http://web.resource.org/cc/"
   xmlns:rdf="http://www.w3.org/1999/02/22-rdf-syntax-ns#"
   xmlns:svg="http://www.w3.org/2000/svg"
   xmlns="http://www.w3.org/2000/svg"
   xmlns:sodipodi="http://sodipodi.sourceforge.net/DTD/sodipodi-0.dtd"
   xmlns:inkscape="http://www.inkscape.org/namespaces/inkscape"
   version="1.1"
   id="Layer_1"
   width="611.756"
   height="286.756"
   viewBox="0 0 611.756 286.756"
   overflow="visible"
   enable-background="new 0 0 611.756 286.756"
   xml:space="preserve"
   sodipodi:version="0.32"
   inkscape:version="0.45"
   sodipodi:docname="Metallica_logo.svg"
   inkscape:output_extension="org.inkscape.output.svg.inkscape"
   sodipodi:docbase="C:\Dokumente und Einstellungen\e-medien\Eigene Dateien"
   sodipodi:modified="true"><metadata
   id="metadata28"><rdf:RDF><cc:Work
       rdf:about=""><dc:format>image/svg+xml</dc:format><dc:type
         rdf:resource="http://purl.org/dc/dcmitype/StillImage" /></cc:Work></rdf:RDF></metadata><defs
   id="defs26">
	
	
	
	
	
	
	
	
	
	
</defs><sodipodi:namedview
   inkscape:window-height="808"
   inkscape:window-width="1152"
   inkscape:pageshadow="2"
   inkscape:pageopacity="0.0"
   guidetolerance="10.0"
   gridtolerance="10.0"
   objecttolerance="10.0"
   borderopacity="1.0"
   bordercolor="#666666"
   pagecolor="#ffffff"
   id="base"
   inkscape:zoom="1.1638628"
   inkscape:cx="305.87799"
   inkscape:cy="109.00969"
   inkscape:window-x="-4"
   inkscape:window-y="-4"
   inkscape:current-layer="Layer_1" />

<rect
   style="opacity:1;fill:#000000;fill-opacity:1;fill-rule:evenodd;stroke:none;stroke-width:2.27977204;stroke-linecap:butt;stroke-linejoin:miter;stroke-miterlimit:14.19999981;stroke-dasharray:none;stroke-opacity:1"
   id="rect2190"
   width="611.76001"
   height="286.76001"
   x="7.1054274e-015"
   y="-0.0039994353" /><path
   style="fill:#ffffff;fill-rule:evenodd"
   id="path7"
   d="M 101.584,82.392014 C 123.621,65.659014 141.163,46.000014 156.672,25.01101 L 131.04,82.008014 L 133.612,88.216014 L 157.818,67.088014 L 157.818,127.53201 L 131.04,152.39801 L 138.311,101.51901 L 128.362,113.76201 L 122.625,101.13801 C 108.6,131.48701 94.573,161.83601 80.545,192.18501 C 79.026,195.52601 82.504,198.05801 85.516,195.62501 L 105.03,179.56101 L 26.988,258.74701 L 108.854,100.75401 L 123.005,73.213014 C 123.327,72.624014 123.008,70.863014 121.093,71.449014 L 101.584,82.392014 L 101.584,82.392014 z "
   clip-rule="evenodd" /><path
   style="fill:#ffffff;fill-rule:evenodd"
   id="path9"
   d="M 293.471,66.976014 L 312.027,66.976014 L 312.027,110.23701 L 335.164,110.23701 L 335.164,127.13401 C 321.267,127.13401 307.369,127.13401 293.471,127.13401 L 293.471,66.976014 L 293.471,66.976014 z "
   clip-rule="evenodd" /><path
   style="fill:#ffffff;fill-rule:evenodd"
   id="path11"
   d="M 338.257,66.976014 L 356.813,66.976014 L 356.813,110.23701 L 378.421,110.23701 L 378.421,127.13401 C 364.524,127.13401 352.154,127.13401 338.257,127.13401 L 338.257,66.976014 L 338.257,66.976014 z "
   clip-rule="evenodd" /><polygon
   style="fill:#ffffff;fill-rule:evenodd"
   id="polygon13"
   points="382.097,66.976 400.87,66.976 400.87,127.134 382.097,127.134 382.097,66.976 "
   clip-rule="evenodd" /><polygon
   style="fill:#ffffff;fill-rule:evenodd"
   id="polygon15"
   points="238.681,83.387 238.681,127.134 218.817,127.134 218.817,83.387 208.813,83.387 208.813,66.976 261.418,66.976 254.435,83.387 238.681,83.387 "
   clip-rule="evenodd" /><path
   style="fill:#ffffff;fill-rule:evenodd"
   id="path17"
   d="M 162.499,66.976014 C 176.542,66.976014 190.585,66.976014 204.628,66.976014 L 204.628,83.387014 L 181.271,83.387014 L 181.271,89.425014 L 204.628,89.425014 L 204.628,105.83601 L 181.271,105.83601 L 181.271,110.72401 L 204.628,110.72401 L 204.628,127.13501 C 190.585,127.13501 176.542,127.13501 162.499,127.13501 L 162.499,66.976014 L 162.499,66.976014 z "
   clip-rule="evenodd" /><path
   style="fill:#ffffff;fill-rule:evenodd"
   id="path19"
   d="M 288.537,66.976014 L 288.766,127.13401 L 270.957,127.13401 L 270.957,110.26701 L 269.568,110.26701 L 261.24,127.13401 L 242.039,127.13401 L 268.408,66.976014 L 288.537,66.976014 L 288.537,66.976014 z M 268.552,97.889014 L 273.152,98.056014 L 273.152,89.542014 L 268.552,97.889014 L 268.552,97.889014 z "
   clip-rule="evenodd" /><path
   style="fill:#ffffff;fill-rule:evenodd"
   id="path21"
   d="M 436.354,63.437014 C 444.508,63.437014 451.959,66.496014 457.622,71.520014 L 443.907,85.802014 C 441.768,84.063014 439.019,83.016014 436.025,83.016014 C 429.241,83.016014 423.709,88.399014 423.709,95.004014 C 423.709,101.60801 429.241,106.99201 436.025,106.99201 C 441.012,106.99201 445.324,104.08201 447.257,99.916014 L 464.257,110.85601 C 458.759,120.55701 448.308,127.13401 436.354,127.13401 C 418.728,127.13401 404.35,112.82701 404.35,95.285014 C 404.351,77.743014 418.729,63.437014 436.354,63.437014 L 436.354,63.437014 z "
   clip-rule="evenodd" /><path
   style="fill:#ffffff;fill-rule:evenodd"
   id="path23"
   d="M 448.879,25.84401 C 467.45,42.370014 486.391,58.527014 505.987,74.030014 C 499.444,70.205014 492.898,66.381014 486.356,62.556014 C 484.183,61.468014 480.988,62.556014 483.296,66.976014 C 517.135,130.48101 551.647,193.72101 584.766,257.59501 C 555.886,230.61801 528.128,204.20601 501.397,178.30401 L 529.443,195.64201 C 532.787,197.04901 534.947,194.30901 531.482,188.75501 L 497.576,118.39101 L 491.712,106.66301 L 483.806,106.40901 L 491.201,153.57501 L 468.402,127.13501 L 464.504,53.910014 L 448.879,25.84401 L 448.879,25.84401 z M 480.867,90.128014 L 485.361,90.128014 L 478.828,79.494014 L 480.867,90.128014 L 480.867,90.128014 z "
   clip-rule="evenodd" /></svg>